<svg width="30" height="30" viewBox="0 0 30 30" fill="none" xmlns="http://www.w3.org/2000/svg">
<path d="M26.6649 15H28.5279C29.3216 15 29.94 14.3142 29.863 13.5223C29.1212 5.9318 22.7213 0 14.9342 0C7.14718 0 0.747235 5.9318 0.00551875 13.5243C-0.0715426 14.3142 0.546875 15.0019 1.34061 15.0019H3.20742C4.40187 15.0019 5.00102 16.4468 4.15527 17.2906L1.6084 19.8395C1.20575 20.2421 1.10364 20.8528 1.34639 21.3672C1.97058 22.6946 2.78166 23.916 3.74878 24.9968C4.26316 25.5709 5.15515 25.5979 5.70036 25.0527L9.35499 21.398C10.2007 20.5523 11.6437 21.1514 11.6437 22.3459V28.5223C11.6437 29.1851 12.1253 29.7553 12.7823 29.8497C13.4836 29.9499 14.2022 30.0039 14.9323 30.0039C15.6625 30.0039 16.3811 29.9518 17.0842 29.8497C17.7393 29.7553 18.2228 29.1851 18.2228 28.5223V22.342C18.2228 21.1476 19.6677 20.5484 20.5135 21.3942L24.1681 25.0488C24.7133 25.594 25.6053 25.567 26.1197 24.9929C27.0868 23.9121 27.8998 22.6907 28.5221 21.3614C28.7629 20.847 28.6608 20.2363 28.2581 19.8356L25.7151 17.2926C24.8713 16.4468 25.4685 15.0039 26.663 15.0039L26.6649 15ZM8.90611 11.1778C8.55933 10.752 8.38787 10.0873 8.38787 9.18186C8.38787 8.27639 8.56126 7.58862 8.90611 7.17249C9.25289 6.75636 9.7981 6.54637 10.5417 6.54637C11.2854 6.54637 11.8595 6.75443 12.2043 7.17249C12.5511 7.58862 12.7226 8.25905 12.7226 9.18186C12.7226 10.1047 12.5492 10.752 12.2043 11.1778C11.8576 11.6035 11.3027 11.8154 10.5417 11.8154C9.78076 11.8154 9.25096 11.6016 8.90611 11.1778ZM19.8739 15.8612C16.9378 17.9996 12.9345 17.9996 9.99653 15.8612C9.62471 15.5914 9.82507 15 10.2836 15H19.5849C20.0434 15 20.2438 15.5914 19.8719 15.8612H19.8739ZM20.9624 11.1778C20.6156 11.6035 20.0607 11.8154 19.2998 11.8154C18.5388 11.8154 18.009 11.6016 17.6641 11.1778C17.3174 10.752 17.1459 10.0873 17.1459 9.18186C17.1459 8.27639 17.3193 7.58862 17.6641 7.17249C18.0109 6.75636 18.5561 6.54637 19.2998 6.54637C20.0434 6.54637 20.6175 6.75443 20.9624 7.17249C21.3091 7.58862 21.4806 8.25905 21.4806 9.18186C21.4806 10.1047 21.3072 10.752 20.9624 11.1778Z" fill="#0080BC"/>
</svg>
