<svg width="211" height="176" viewBox="0 0 211 176" fill="none" xmlns="http://www.w3.org/2000/svg">
<path d="M118.622 50.085C99.0572 27.7714 74.7052 0 9.02759 0H0V22.7104H9.02759C61.4583 22.7104 81.1841 42.0002 98.6289 61.719C81.077 56.154 56.0824 51.093 9.02759 51.093H0V73.8033H9.02759C66.1381 73.8033 87.0204 81.2448 104.819 88C87.0204 94.7552 66.1381 102.197 9.02759 102.197H0V124.907H9.02759C56.0824 124.907 81.077 119.846 98.6289 114.281C81.1841 134 61.4583 153.29 9.02759 153.29H0V176H9.02759C74.7052 176 99.0572 148.229 118.622 125.915C132.137 110.507 141.893 99.3659 163 99.3659V76.6555C141.903 76.6555 132.137 65.5255 118.622 50.1065V50.085Z" fill="#0080BC"/>
<path d="M193.5 71C183.83 71 176 78.8408 176 88.5C176 98.1699 183.841 106 193.5 106C203.17 106 211 98.1592 211 88.5C211 78.8301 203.159 71 193.5 71Z" fill="#0080BC"/>
</svg>
