<svg width="1112" height="193" viewBox="0 0 1112 193" fill="none" xmlns="http://www.w3.org/2000/svg">
<path d="M129.841 54.8219C108.426 30.3979 81.7705 0 9.88139 0H0V24.8582H9.88139C67.2708 24.8582 88.8622 45.9725 107.957 67.5562C88.7449 61.4648 61.3865 55.9251 9.88139 55.9251H0V80.7834H9.88139C72.3932 80.7834 95.2505 88.9286 114.732 96.3227C95.2505 103.717 72.3932 111.862 9.88139 111.862H0V136.72H9.88139C61.3865 136.72 88.7449 131.181 107.957 125.089C88.8622 146.673 67.2708 167.787 9.88139 167.787H0V192.645H9.88139C81.7705 192.645 108.426 162.247 129.841 137.823C144.634 120.958 155.312 108.764 178.416 108.764V83.9053C155.324 83.9053 144.634 71.7227 129.841 54.8454V54.8219Z" fill="#0080BC"/>
<path d="M212.315 77.8682C201.73 77.8682 193.16 86.4505 193.16 97.0232C193.16 107.608 201.742 116.178 212.315 116.178C222.899 116.178 231.47 107.596 231.47 97.0232C231.47 86.4388 222.888 77.8682 212.315 77.8682Z" fill="#0080BC"/>
<path d="M344.71 23.5226C361.883 23.5226 375.377 27.6626 385.19 35.9426C395.003 44.2226 399.91 55.3393 399.91 69.2926C399.91 84.166 395.003 95.5893 385.19 103.563C375.377 111.383 361.96 115.293 344.94 115.293L341.72 117.133H309.06V175.323H277.78V23.5226H344.71ZM341.03 92.9826C349.923 92.9826 356.517 91.2193 360.81 87.6926C365.257 84.0126 367.48 78.416 367.48 70.9026C367.48 63.3893 365.257 57.8693 360.81 54.3426C356.517 50.6626 349.923 48.8226 341.03 48.8226H309.06V92.9826H341.03ZM359.66 99.6526L408.88 175.323H373.23L332.52 108.853L359.66 99.6526Z" fill="#2B2B2B"/>
<path d="M470.502 177.623C458.389 177.623 447.809 175.246 438.762 170.493C429.869 165.739 422.969 158.916 418.062 150.023C413.155 141.129 410.702 130.396 410.702 117.823C410.702 105.249 413.155 94.516 418.062 85.6226C422.969 76.7293 429.792 69.906 438.532 65.1526C447.425 60.3993 457.545 58.0226 468.892 58.0226C480.545 58.0226 490.435 60.3993 498.562 65.1526C506.689 69.7526 512.899 76.116 517.192 84.2426C521.485 92.216 523.632 101.339 523.632 111.613C523.632 114.679 523.555 117.593 523.402 120.353C523.249 123.113 523.019 125.566 522.712 127.713H430.942V105.863H508.912L493.732 111.383C493.732 101.723 491.509 94.286 487.062 89.0726C482.769 83.8593 476.635 81.2526 468.662 81.2526C462.835 81.2526 457.775 82.6326 453.482 85.3926C449.342 88.1526 446.199 92.2926 444.052 97.8126C441.905 103.179 440.832 110.003 440.832 118.283C440.832 126.409 441.982 133.156 444.282 138.523C446.735 143.736 450.109 147.646 454.402 150.253C458.849 152.859 464.139 154.163 470.272 154.163C477.019 154.163 482.462 152.859 486.602 150.253C490.742 147.646 493.962 144.043 496.262 139.443L521.332 149.103C518.879 155.083 515.122 160.219 510.062 164.513C505.155 168.806 499.252 172.103 492.352 174.403C485.605 176.549 478.322 177.623 470.502 177.623Z" fill="#2B2B2B"/>
<path d="M584.835 177.623C573.182 177.623 562.525 175.553 552.865 171.413C543.359 167.273 535.615 161.446 529.635 153.933L547.805 135.533C551.485 141.053 556.392 145.576 562.525 149.103C568.659 152.629 575.942 154.393 584.375 154.393C590.355 154.393 595.109 153.549 598.635 151.863C602.315 150.023 604.155 147.186 604.155 143.353C604.155 140.899 603.312 138.829 601.625 137.143C599.939 135.303 596.565 133.846 591.505 132.773L571.265 128.633C557.925 125.873 548.419 121.733 542.745 116.213C537.225 110.539 534.465 103.256 534.465 94.3626C534.465 88.076 536.305 82.1726 539.985 76.6526C543.819 71.1326 549.492 66.686 557.005 63.3126C564.519 59.786 573.872 58.0226 585.065 58.0226C596.565 58.0226 606.532 59.8626 614.965 63.5426C623.552 67.0693 630.299 72.3593 635.205 79.4126L616.345 97.8126C612.972 92.446 608.525 88.3826 603.005 85.6226C597.639 82.7093 591.965 81.2526 585.985 81.2526C581.692 81.2526 578.012 81.7126 574.945 82.6326C571.879 83.5526 569.579 84.856 568.045 86.5426C566.512 88.076 565.745 90.0693 565.745 92.5226C565.745 94.976 566.819 97.1226 568.965 98.9626C571.112 100.649 575.022 102.106 580.695 103.333L604.155 108.163C615.502 110.463 623.629 114.373 628.535 119.893C633.442 125.259 635.895 131.776 635.895 139.443C635.895 146.803 633.902 153.396 629.915 159.223C626.082 164.896 620.332 169.419 612.665 172.793C605.152 176.013 595.875 177.623 584.835 177.623Z" fill="#2B2B2B"/>
<path d="M701.514 58.0226C713.167 58.0226 723.364 60.3993 732.104 65.1526C740.997 69.906 747.897 76.7293 752.804 85.6226C757.864 94.516 760.394 105.249 760.394 117.823C760.394 130.243 757.864 140.976 752.804 150.023C747.897 158.916 740.997 165.739 732.104 170.493C723.364 175.246 713.167 177.623 701.514 177.623C690.014 177.623 679.817 175.246 670.924 170.493C662.03 165.739 655.054 158.916 649.994 150.023C645.087 140.976 642.634 130.243 642.634 117.823C642.634 105.249 645.087 94.516 649.994 85.6226C655.054 76.7293 662.03 69.906 670.924 65.1526C679.817 60.3993 690.014 58.0226 701.514 58.0226ZM701.514 81.4826C695.687 81.4826 690.704 82.8626 686.564 85.6226C682.577 88.2293 679.51 92.216 677.364 97.5826C675.217 102.949 674.144 109.696 674.144 117.823C674.144 125.949 675.217 132.696 677.364 138.063C679.51 143.429 682.577 147.493 686.564 150.253C690.704 152.859 695.687 154.163 701.514 154.163C707.187 154.163 712.017 152.859 716.004 150.253C720.144 147.493 723.287 143.429 725.434 138.063C727.58 132.696 728.654 125.949 728.654 117.823C728.654 109.696 727.58 102.949 725.434 97.5826C723.287 92.216 720.144 88.2293 716.004 85.6226C712.017 82.8626 707.187 81.4826 701.514 81.4826Z" fill="#2B2B2B"/>
<path d="M806.309 9.95264V139.903C806.309 145.269 807.229 149.026 809.069 151.173C810.909 153.319 813.976 154.393 818.269 154.393C820.876 154.393 823.023 154.239 824.709 153.933C826.396 153.473 828.543 152.859 831.149 152.093L828.389 172.793C825.783 174.326 822.486 175.476 818.499 176.243C814.666 177.163 810.833 177.623 806.999 177.623C795.806 177.623 787.603 174.939 782.389 169.573C777.329 164.053 774.799 155.313 774.799 143.353V9.95264H806.309Z" fill="#2B2B2B"/>
<path d="M908.604 60.3226H941.264L897.564 175.323H861.224L817.524 60.3226H851.104L879.624 151.173L908.604 60.3226Z" fill="#2B2B2B"/>
<path d="M963.09 43.7626C956.497 43.7626 951.59 42.3826 948.37 39.6226C945.15 36.7093 943.54 32.4926 943.54 26.9726C943.54 21.2993 945.15 17.0826 948.37 14.3226C951.59 11.4093 956.497 9.95264 963.09 9.95264C969.684 9.95264 974.59 11.4093 977.81 14.3226C981.03 17.0826 982.64 21.2993 982.64 26.9726C982.64 32.4926 981.03 36.7093 977.81 39.6226C974.59 42.3826 969.684 43.7626 963.09 43.7626ZM978.73 60.3226V175.323H947.22V60.3226H978.73Z" fill="#2B2B2B"/>
<path d="M1053.07 58.0226C1064.73 58.0226 1074.92 60.3993 1083.66 65.1526C1092.56 69.906 1099.46 76.7293 1104.36 85.6226C1109.42 94.516 1111.95 105.249 1111.95 117.823C1111.95 130.243 1109.42 140.976 1104.36 150.023C1099.46 158.916 1092.56 165.739 1083.66 170.493C1074.92 175.246 1064.73 177.623 1053.07 177.623C1041.57 177.623 1031.38 175.246 1022.48 170.493C1013.59 165.739 1006.61 158.916 1001.55 150.023C996.646 140.976 994.192 130.243 994.192 117.823C994.192 105.249 996.646 94.516 1001.55 85.6226C1006.61 76.7293 1013.59 69.906 1022.48 65.1526C1031.38 60.3993 1041.57 58.0226 1053.07 58.0226ZM1053.07 81.4826C1047.25 81.4826 1042.26 82.8626 1038.12 85.6226C1034.14 88.2293 1031.07 92.216 1028.92 97.5826C1026.78 102.949 1025.7 109.696 1025.7 117.823C1025.7 125.949 1026.78 132.696 1028.92 138.063C1031.07 143.429 1034.14 147.493 1038.12 150.253C1042.26 152.859 1047.25 154.163 1053.07 154.163C1058.75 154.163 1063.58 152.859 1067.56 150.253C1071.7 147.493 1074.85 143.429 1076.99 138.063C1079.14 132.696 1080.21 125.949 1080.21 117.823C1080.21 109.696 1079.14 102.949 1076.99 97.5826C1074.85 92.216 1071.7 88.2293 1067.56 85.6226C1063.58 82.8626 1058.75 81.4826 1053.07 81.4826Z" fill="#2B2B2B"/>
</svg>
