<svg width="168" height="30" viewBox="0 0 168 30" fill="none" xmlns="http://www.w3.org/2000/svg">
<g clip-path="url(#clip0_12086_7)">
<path d="M47.0934 17.8917H42.5603V27.143H37.5879V3.01118H48.2281C53.713 3.01118 57.0035 5.71604 57.0035 10.4707C57.0035 13.9443 55.2118 16.3582 52.0677 17.3446L58.4291 27.143H52.7613L47.0934 17.8917ZM42.5584 14.0522H47.5673C50.4918 14.0522 51.8462 12.956 51.8462 10.542C51.8462 8.12806 50.4937 7.03186 47.5673 7.03186H42.5584V14.0522Z" fill="#2B2B2B"/>
<path d="M76.2708 19.903H63.3264C63.8389 22.5366 65.4475 23.7792 67.8962 23.7792C70.0173 23.7792 71.4063 22.9759 71.9188 21.5117L76.0146 23.0105C74.8452 25.935 72.0286 27.5071 67.8981 27.5071C61.8295 27.5071 58.3926 23.9969 58.3926 18.0015C58.3926 12.0062 61.7197 8.49602 67.6072 8.49602C73.4947 8.49602 76.4192 11.933 76.4192 17.9283C76.4192 18.4408 76.346 19.4272 76.2727 19.903H76.2708ZM63.2918 16.3929H71.8109C71.4082 13.6514 69.8728 12.1873 67.5687 12.1873C65.2645 12.1873 63.6925 13.6129 63.2898 16.3929H63.2918Z" fill="#2B2B2B"/>
<path d="M77.04 23.9989L79.9645 21.0012C80.9875 23.1955 82.9622 23.8524 85.4494 23.8524C87.6071 23.8524 88.8131 23.1936 88.8131 22.2072C88.8131 21.3653 87.8267 20.8548 85.1565 20.3057C79.4521 19.1729 77.5506 17.4178 77.5506 14.3816C77.5506 11.3454 80.3652 8.49411 85.7769 8.49411C89.9825 8.49411 92.2481 9.73672 93.93 12.3703L90.8225 15.0039C89.7629 13.1024 88.2987 12.1526 85.8501 12.1526C83.8022 12.1526 82.5596 12.9579 82.5596 13.9077C82.5596 14.8575 83.4727 15.5163 86.5456 16.1386C91.884 17.1982 93.8587 18.8068 93.8587 21.8431C93.8587 25.1336 90.9708 27.5109 85.5226 27.5109C81.7562 27.5109 78.7219 26.4879 77.04 24.0008V23.9989Z" fill="#2B2B2B"/>
<path d="M113.347 18.0015C113.347 23.9622 109.874 27.5071 103.986 27.5071C98.0985 27.5071 94.625 23.9603 94.625 18.0015C94.625 12.0428 98.0985 8.49602 103.986 8.49602C109.874 8.49602 113.347 12.0428 113.347 18.0015ZM99.6359 18.0015C99.6359 21.8777 101.171 23.7792 103.986 23.7792C106.801 23.7792 108.336 21.8777 108.336 18.0015C108.336 14.1254 106.801 12.2239 103.986 12.2239C101.171 12.2239 99.6359 14.1254 99.6359 18.0015Z" fill="#2B2B2B"/>
<path d="M120.404 21.3287C120.404 23.0471 120.844 23.6694 122.196 23.6694C123.038 23.6694 123.549 23.5596 124.354 23.2668L123.915 26.7403C123.111 27.2162 121.72 27.509 120.514 27.509C116.968 27.509 115.396 25.8637 115.396 22.0608V0.853455H120.404V21.3287Z" fill="#2B2B2B"/>
<path d="M141.463 8.86014L134.516 27.141H128.738L121.791 8.86014H127.166L131.663 23.6309L136.269 8.86014H141.461H141.463Z" fill="#2B2B2B"/>
<path d="M141.463 3.55831C141.463 1.76663 142.486 0.853455 144.57 0.853455C146.655 0.853455 147.678 1.76663 147.678 3.55831C147.678 5.34999 146.655 6.22656 144.57 6.22656C142.486 6.22656 141.463 5.34999 141.463 3.55831ZM147.058 27.143H142.049V8.86013H147.058V27.141V27.143Z" fill="#2B2B2B"/>
<path d="M167.936 18.0015C167.936 23.9622 164.462 27.5071 158.575 27.5071C152.687 27.5071 149.214 23.9603 149.214 18.0015C149.214 12.0428 152.687 8.49602 158.575 8.49602C164.462 8.49602 167.936 12.0428 167.936 18.0015ZM154.225 18.0015C154.225 21.8777 155.76 23.7792 158.577 23.7792C161.393 23.7792 162.927 21.8777 162.927 18.0015C162.927 14.1254 161.391 12.2239 158.577 12.2239C155.762 12.2239 154.225 14.1254 154.225 18.0015Z" fill="#2B2B2B"/>
<path d="M26.6649 15H28.5279C29.3216 15 29.94 14.3142 29.863 13.5223C29.1212 5.9318 22.7213 0 14.9342 0C7.14718 0 0.747235 5.9318 0.00551875 13.5243C-0.0715426 14.3142 0.546875 15.0019 1.34061 15.0019H3.20742C4.40187 15.0019 5.00102 16.4468 4.15527 17.2906L1.6084 19.8395C1.20575 20.2421 1.10364 20.8528 1.34639 21.3672C1.97058 22.6946 2.78166 23.916 3.74878 24.9968C4.26316 25.5709 5.15515 25.5979 5.70036 25.0527L9.35499 21.398C10.2007 20.5523 11.6437 21.1514 11.6437 22.3459V28.5223C11.6437 29.1851 12.1253 29.7553 12.7823 29.8497C13.4836 29.9499 14.2022 30.0039 14.9323 30.0039C15.6625 30.0039 16.3811 29.9518 17.0842 29.8497C17.7393 29.7553 18.2228 29.1851 18.2228 28.5223V22.342C18.2228 21.1476 19.6677 20.5484 20.5135 21.3942L24.1681 25.0488C24.7133 25.594 25.6053 25.567 26.1197 24.9929C27.0868 23.9121 27.8998 22.6907 28.5221 21.3614C28.7629 20.847 28.6608 20.2363 28.2581 19.8356L25.7151 17.2926C24.8713 16.4468 25.4685 15.0039 26.663 15.0039L26.6649 15ZM8.90611 11.1778C8.55933 10.752 8.38787 10.0873 8.38787 9.18186C8.38787 8.27639 8.56126 7.58862 8.90611 7.17249C9.25289 6.75636 9.7981 6.54637 10.5417 6.54637C11.2854 6.54637 11.8595 6.75443 12.2043 7.17249C12.5511 7.58862 12.7226 8.25905 12.7226 9.18186C12.7226 10.1047 12.5492 10.752 12.2043 11.1778C11.8576 11.6035 11.3027 11.8154 10.5417 11.8154C9.78076 11.8154 9.25096 11.6016 8.90611 11.1778ZM19.8739 15.8612C16.9378 17.9996 12.9345 17.9996 9.99653 15.8612C9.62471 15.5914 9.82507 15 10.2836 15H19.5849C20.0434 15 20.2438 15.5914 19.8719 15.8612H19.8739ZM20.9624 11.1778C20.6156 11.6035 20.0607 11.8154 19.2998 11.8154C18.5388 11.8154 18.009 11.6016 17.6641 11.1778C17.3174 10.752 17.1459 10.0873 17.1459 9.18186C17.1459 8.27639 17.3193 7.58862 17.6641 7.17249C18.0109 6.75636 18.5561 6.54637 19.2998 6.54637C20.0434 6.54637 20.6175 6.75443 20.9624 7.17249C21.3091 7.58862 21.4806 8.25905 21.4806 9.18186C21.4806 10.1047 21.3072 10.752 20.9624 11.1778Z" fill="#0080BC"/>
</g>
<defs>
<clipPath id="clip0_12086_7">
<rect width="167.936" height="30" fill="white"/>
</clipPath>
</defs>
</svg>
