<svg width="595" height="359" viewBox="0 0 595 359" fill="none" xmlns="http://www.w3.org/2000/svg">
<path d="M287.944 259.591H297C300.858 259.591 303.864 256.272 303.49 252.44C299.884 215.706 268.774 187 230.921 187C193.068 187 161.957 215.706 158.352 252.45C157.977 256.272 160.983 259.601 164.842 259.601H173.916C179.723 259.601 182.635 266.593 178.524 270.677L166.144 283.011C164.186 284.96 163.69 287.915 164.87 290.405C167.904 296.828 171.847 302.739 176.548 307.97C179.048 310.748 183.384 310.879 186.035 308.24L203.8 290.554C207.911 286.461 214.926 289.361 214.926 295.141V325.031C214.926 328.239 217.267 330.998 220.46 331.455C223.869 331.94 227.362 332.201 230.912 332.201C234.461 332.201 237.954 331.949 241.372 331.455C244.556 330.998 246.907 328.239 246.907 325.031V295.122C246.907 289.342 253.931 286.442 258.042 290.535L275.807 308.222C278.457 310.86 282.793 310.73 285.294 307.951C289.995 302.721 293.947 296.81 296.972 290.377C298.142 287.887 297.646 284.932 295.689 282.993L283.327 270.686C279.225 266.593 282.128 259.61 287.935 259.61L287.944 259.591ZM201.618 241.094C199.932 239.033 199.099 235.817 199.099 231.435C199.099 227.053 199.942 223.724 201.618 221.711C203.304 219.697 205.954 218.681 209.569 218.681C213.184 218.681 215.974 219.687 217.651 221.711C219.336 223.724 220.17 226.969 220.17 231.435C220.17 235.901 219.327 239.033 217.651 241.094C215.965 243.154 213.268 244.18 209.569 244.18C205.87 244.18 203.294 243.145 201.618 241.094ZM254.933 263.759C240.66 274.108 221.2 274.108 206.919 263.759C205.111 262.453 206.085 259.591 208.314 259.591H253.528C255.757 259.591 256.731 262.453 254.923 263.759H254.933ZM260.224 241.094C258.538 243.154 255.841 244.18 252.142 244.18C248.443 244.18 245.867 243.145 244.191 241.094C242.505 239.033 241.672 235.817 241.672 231.435C241.672 227.053 242.515 223.724 244.191 221.711C245.877 219.697 248.527 218.681 252.142 218.681C255.757 218.681 258.547 219.687 260.224 221.711C261.909 223.724 262.743 226.969 262.743 231.435C262.743 235.901 261.9 239.033 260.224 241.094Z" fill="#F8EEE5"/>
<path d="M467.342 182.938L478.04 176.639C482.599 173.955 483.841 167.942 480.733 163.676C450.92 122.788 394.198 110.516 349.479 136.848C304.761 163.18 287.977 218.734 309.277 264.65C311.494 269.426 317.36 271.267 321.919 268.583L332.639 262.27C339.499 258.231 347.803 264.466 345.787 272.15L339.742 295.334C338.785 298.998 340.255 302.835 343.38 304.955C351.433 310.433 360.203 314.673 369.395 317.582C374.282 319.125 379.495 316.263 380.791 311.302L389.475 278.05C391.485 270.355 401.788 268.901 405.809 275.73L426.602 311.042C428.833 314.831 433.519 316.462 437.609 314.78C441.974 312.982 446.282 310.86 450.475 308.391C454.668 305.922 458.62 303.195 462.314 300.233C465.758 297.479 466.615 292.583 464.384 288.794L443.578 253.46C439.557 246.632 445.838 238.32 453.542 240.296L486.833 248.832C491.799 250.105 496.831 246.935 497.852 241.913C499.767 232.464 500.324 222.731 499.423 213.027C499.074 209.272 496.432 206.126 492.77 205.196L469.606 199.257C461.913 197.275 460.485 187.006 467.344 182.967L467.342 182.938ZM352.491 221.137C349.066 219.875 345.844 216.655 342.796 211.478C339.748 206.302 338.428 201.783 339.008 198.238C339.598 194.686 342.022 191.642 346.293 189.128C350.563 186.613 354.561 185.861 357.948 187.085C361.341 188.292 364.582 191.545 367.689 196.821C370.795 202.097 371.979 206.384 371.432 209.984C370.874 213.591 368.401 216.679 364.031 219.252C359.661 221.825 355.898 222.394 352.491 221.137ZM431.242 210.825C421.58 232.979 398.59 246.517 374.52 244.225C371.476 243.941 370.636 239.882 373.269 238.331L426.684 206.879C429.317 205.329 432.458 208.033 431.231 210.832L431.242 210.825ZM421.727 180.369C421.168 183.976 418.696 187.063 414.326 189.637C409.955 192.21 406.193 192.779 402.786 191.522C399.361 190.26 396.139 187.04 393.091 181.863C390.042 176.687 388.723 172.168 389.302 168.623C389.893 165.071 392.317 162.027 396.587 159.512C400.858 156.998 404.855 156.246 408.243 157.47C411.635 158.676 414.877 161.93 417.984 167.206C421.09 172.481 422.274 176.769 421.727 180.369Z" fill="#0080BC"/>
<path d="M152.406 212.77L159.293 219.484C162.227 222.344 166.974 222.049 169.53 218.857C194.021 188.248 191.643 143.354 162.856 115.292C134.069 87.2296 89.1291 85.9969 59.1478 111.267C56.0291 113.896 55.8477 118.656 58.782 121.516L65.6831 128.244C70.0987 132.548 67.1298 140.025 60.9759 140.083L42.4164 140.285C39.4834 140.316 36.9149 142.195 35.9668 144.963C33.5121 152.098 32.1283 159.516 31.826 166.979C31.6679 170.945 34.8685 174.259 38.8401 174.217L65.462 173.937C71.6228 173.872 74.8075 181.277 70.5222 185.673L48.363 208.405C45.9854 210.844 45.72 214.678 47.8099 217.393C50.0428 220.289 52.5058 223.077 55.205 225.708C57.9042 228.339 60.7473 230.738 63.7131 232.896C66.4732 234.909 70.3067 234.553 72.6844 232.114L94.8574 209.368C99.1427 204.972 106.634 207.974 106.726 214.135L107.125 240.755C107.184 244.727 110.578 247.842 114.539 247.583C121.992 247.09 129.38 245.525 136.449 242.875C139.185 241.85 140.998 239.234 140.948 236.308L140.67 217.785C140.585 211.631 147.97 208.473 152.385 212.777L152.406 212.77ZM100.47 134.706C100.715 131.889 102.466 128.825 105.714 125.493C108.963 122.16 112.071 120.254 114.839 119.965C117.614 119.683 120.383 120.875 123.132 123.555C125.881 126.235 127.257 129.07 127.032 131.851C126.821 134.632 125.049 137.717 121.739 141.114C118.428 144.51 115.465 146.267 112.662 146.592C109.853 146.909 107.041 145.689 104.228 142.947C101.415 140.205 100.224 137.508 100.47 134.706ZM124.212 191.467C105.686 188.756 90.8869 174.329 87.6981 155.872C87.2912 153.539 90.1538 152.084 91.8488 153.737L126.233 187.256C127.928 188.908 126.547 191.807 124.205 191.46L124.212 191.467ZM145.039 178.153C142.229 178.47 139.418 177.251 136.605 174.508C133.791 171.766 132.6 169.07 132.846 166.267C133.091 163.45 134.842 160.386 138.091 157.054C141.339 153.722 144.448 151.815 147.215 151.526C149.99 151.245 152.759 152.437 155.508 155.116C158.257 157.796 159.633 160.631 159.408 163.412C159.197 166.193 157.426 169.279 154.115 172.675C150.804 176.071 147.841 177.829 145.039 178.153Z" fill="#2B2B2B"/>
<path d="M194.057 135.551L187.608 135.703C184.86 135.768 182.775 138.183 183.107 140.905C186.293 167.004 208.931 186.923 235.888 186.286C262.845 185.649 284.516 164.682 286.466 138.455C286.668 135.727 284.471 133.407 281.723 133.472L275.261 133.625C271.126 133.722 268.934 128.792 271.793 125.814L280.402 116.822C281.763 115.401 282.067 113.288 281.185 111.535C278.916 107.012 276.009 102.869 272.573 99.2231C270.745 97.2866 267.655 97.2666 265.812 99.1902L253.458 112.084C250.6 115.068 245.556 113.122 245.458 109.005L244.955 87.7188C244.901 85.4348 243.187 83.509 240.905 83.2374C238.47 82.9495 235.978 82.8224 233.45 82.8822C230.922 82.9419 228.439 83.18 226.013 83.5894C223.753 83.9684 222.126 85.9732 222.18 88.2572L222.683 109.557C222.781 113.673 217.828 115.856 214.831 113.011L201.882 100.715C199.95 98.8805 196.864 99.0464 195.13 101.067C191.871 104.871 189.156 109.147 187.11 113.779C186.318 115.572 186.721 117.668 188.148 119.016L197.158 127.572C200.148 130.418 198.198 135.44 194.064 135.537L194.057 135.551ZM255.845 147.27C257.08 148.709 257.728 150.986 257.802 154.107C257.875 157.227 257.331 159.612 256.171 161.074C255.005 162.536 253.135 163.305 250.56 163.366C247.986 163.427 245.982 162.756 244.754 161.344C243.519 159.938 242.871 157.642 242.796 154.461C242.721 151.281 243.268 149.036 244.427 147.54C245.593 146.045 247.497 145.269 250.131 145.207C252.765 145.144 254.617 145.838 255.845 147.27ZM217.496 132.027C227.485 124.417 241.344 124.09 251.689 131.219C252.998 132.118 252.352 134.173 250.765 134.21L218.566 134.971C216.979 135.009 216.237 132.987 217.503 132.027L217.496 132.027ZM214.109 148.257C215.275 146.761 217.179 145.986 219.813 145.923C222.447 145.861 224.299 146.555 225.527 147.987C226.762 149.426 227.41 151.703 227.484 154.823C227.557 157.944 227.013 160.328 225.853 161.791C224.687 163.253 222.816 164.022 220.242 164.082C217.668 164.143 215.664 163.473 214.436 162.061C213.201 160.655 212.553 158.358 212.478 155.178C212.403 151.998 212.95 149.753 214.109 148.257Z" fill="#0080BC"/>
<path d="M536.881 320.058L540.593 324.653C542.175 326.611 545.092 326.775 546.882 325.014C564.043 308.124 565.853 280.57 550.334 261.364C534.814 242.157 507.494 238.142 487.373 251.376C485.28 252.754 484.823 255.643 486.405 257.601L490.126 262.206C492.506 265.152 490.152 269.496 486.395 269.084L475.061 267.86C473.269 267.666 471.566 268.625 470.787 270.245C468.772 274.418 467.389 278.842 466.663 283.372C466.278 285.779 467.99 288.033 470.415 288.296L486.672 290.059C490.435 290.467 491.839 295.214 488.906 297.584L473.74 309.839C472.113 311.154 471.672 313.473 472.75 315.281C473.901 317.209 475.201 319.089 476.656 320.89C478.112 322.691 479.671 324.36 481.324 325.891C482.861 327.32 485.225 327.381 486.852 326.066L502.028 313.804C504.961 311.434 509.311 313.809 508.92 317.573L507.23 333.838C506.978 336.264 508.822 338.411 511.257 338.54C515.838 338.781 520.457 338.363 524.962 337.26C526.705 336.834 528.001 335.37 528.182 333.582L529.358 322.264C529.753 318.505 534.487 317.115 536.867 320.061L536.881 320.058ZM510.873 268.673C511.228 266.973 512.518 265.232 514.741 263.435C516.965 261.639 518.999 260.702 520.708 260.727C522.421 260.756 524.023 261.684 525.505 263.518C526.987 265.353 527.621 267.181 527.281 268.861C526.951 270.542 525.646 272.296 523.38 274.126C521.114 275.957 519.179 276.814 517.447 276.808C515.71 276.798 514.084 275.85 512.567 273.973C511.051 272.096 510.52 270.365 510.873 268.673ZM521.232 305.017C510.129 302.018 502.151 292.144 501.546 280.655C501.468 279.203 503.319 278.524 504.233 279.655L522.77 302.596C523.684 303.727 522.631 305.394 521.228 305.012L521.232 305.017ZM534.901 298.409C533.164 298.399 531.538 297.451 530.022 295.574C528.505 293.697 527.974 291.966 528.328 290.275C528.682 288.575 529.972 286.833 532.196 285.036C534.419 283.24 536.453 282.303 538.163 282.328C539.875 282.357 541.478 283.285 542.96 285.12C544.442 286.954 545.075 288.783 544.736 290.463C544.405 292.144 543.101 293.897 540.835 295.728C538.569 297.559 536.634 298.415 534.901 298.409Z" fill="#F8EEE5"/>
<path d="M481.877 41.8597L478.321 34.0984C476.806 30.7917 472.781 29.5185 469.644 31.3441C439.578 48.8571 427.191 86.791 442.053 119.232C456.916 151.674 493.733 167.065 526.639 155.729C530.062 154.549 531.734 150.666 530.219 147.359L526.656 139.582C524.376 134.605 529.226 129.364 534.34 131.284L549.772 137.051C552.211 137.964 554.938 137.229 556.608 135.24C560.923 130.117 564.44 124.418 567.077 118.335C568.477 115.101 566.886 111.334 563.584 110.098L541.451 101.817C536.329 99.9006 536.06 92.7506 541.014 90.481L566.631 78.7449C569.38 77.4856 570.826 74.3956 569.963 71.4793C569.041 68.3675 567.893 65.2712 566.499 62.2293C565.106 59.1875 563.518 56.2926 561.753 53.5571C560.111 51.0076 556.823 50.0766 554.074 51.3358L528.441 63.0792C523.487 65.3488 518.244 60.4677 520.138 55.3372L528.32 33.1675C529.541 29.8601 527.727 26.1953 524.364 25.1432C518.035 23.1678 511.418 22.1016 504.717 22.035C502.124 22.0092 499.785 23.595 498.892 26.0339L493.198 41.4604C491.301 46.5828 484.176 46.8366 481.897 41.8604L481.877 41.8597ZM499.919 123.107C498.815 125.361 496.385 127.338 492.63 129.058C488.874 130.779 485.691 131.363 483.307 130.717C480.919 130.063 479.007 128.191 477.588 125.093C476.169 121.995 475.936 119.208 477.012 116.977C478.076 114.741 480.529 112.753 484.356 111C488.184 109.246 491.2 108.739 493.624 109.366C496.051 110.002 497.989 111.911 499.442 115.081C500.894 118.251 501.018 120.865 499.919 123.107ZM498.41 68.5153C512.883 76.6837 520.524 93.3619 517.262 109.665C516.853 111.727 514.018 112.016 513.143 110.105L495.39 71.3555C494.515 69.4453 496.585 67.4868 498.414 68.5233L498.41 68.5153ZM476.908 72.8796C479.336 73.5153 481.274 75.4242 482.726 78.5945C484.178 81.7648 484.303 84.3783 483.203 86.6203C482.099 88.874 479.67 90.8512 475.914 92.5718C472.159 94.2923 468.975 94.8768 466.591 94.2308C464.203 93.5768 462.292 91.7044 460.872 88.6064C459.453 85.5083 459.22 82.7212 460.296 80.4901C461.36 78.2547 463.813 76.2665 467.641 74.5131C471.468 72.7596 474.484 72.252 476.908 72.8796Z" fill="#2B2B2B"/>
<path d="M72.307 323.676L72.0231 330.121C71.9021 332.867 74.1699 335.11 76.9086 334.964C103.163 333.549 124.568 312.31 125.754 285.371C126.941 258.433 107.487 235.393 81.452 231.676C78.7434 231.289 76.2805 233.324 76.1595 236.07L75.8751 242.528C75.693 246.66 70.6255 248.514 67.8483 245.46L59.4584 236.263C58.1331 234.809 56.0453 234.363 54.2368 235.124C49.5702 237.082 45.2401 239.703 41.3705 242.884C39.3149 244.577 39.0861 247.658 40.8807 249.627L52.9102 262.824C55.6941 265.878 53.4107 270.779 49.297 270.598L28.0254 269.661C25.743 269.56 23.7057 271.14 23.2804 273.398C22.8286 275.809 22.5333 278.287 22.422 280.813C22.3107 283.339 22.3804 285.832 22.6248 288.28C22.8501 290.561 24.7404 292.32 27.0228 292.421L48.3077 293.358C52.4214 293.539 54.2646 298.629 51.223 301.426L38.0796 313.514C36.1188 315.318 36.0758 318.408 37.9746 320.274C41.5494 323.784 45.6321 326.781 50.1154 329.136C51.8502 330.047 53.969 329.786 55.4105 328.454L64.5561 320.043C67.5974 317.252 72.476 319.537 72.294 323.669L72.307 323.676ZM88.177 262.822C89.6961 261.687 92.0113 261.195 95.1298 261.332C98.2482 261.469 100.59 262.174 101.971 263.43C103.351 264.692 103.991 266.61 103.878 269.183C103.765 271.755 102.961 273.71 101.468 274.839C99.9824 275.976 97.6473 276.467 94.4692 276.327C91.291 276.187 89.0881 275.489 87.6744 274.232C86.2609 272.968 85.6156 271.016 85.7316 268.384C85.8475 265.751 86.6647 263.951 88.177 262.822ZM70.376 300.053C63.4587 289.572 64.0688 275.723 71.8813 265.884C72.8668 264.638 74.8732 265.421 74.8033 267.007L73.3859 299.184C73.316 300.77 71.2486 301.373 70.3763 300.046L70.376 300.053ZM86.3397 304.529C84.9262 303.265 84.2809 301.313 84.3969 298.681C84.5129 296.048 85.3301 294.248 86.8423 293.119C88.3615 291.984 90.6767 291.492 93.7951 291.629C96.9135 291.767 99.2558 292.471 100.636 293.727C102.017 294.99 102.657 296.908 102.543 299.48C102.43 302.053 101.626 304.007 100.134 305.137C98.6477 306.273 96.3127 306.765 93.1345 306.625C89.9564 306.485 87.7535 305.787 86.3397 304.529Z" fill="#0080BC"/>
</svg>
